PathFileType	4	(X/Y/Z)	G:\GRF\jawan data\CompiledGRF\03. Mohit Kumar\0231~ac~Walking 01_markers.trc
DataRate	CameraRate	NumFrames	NumMarkers	Units	OrigDataRate	OrigDataStartFrame	OrigNumFrames
100.000000	100.000000	23	18	mm	100.000000	100	805
Frame#	Time	c7			r should			l should			sacrum			r asis			r bar 1			r knee 1			r bar 2			r mall			r heel			r met			l asis			l bar 1			l knee 1			l bar 2			l mall			l heel			l met			
		X1	Y1	Z1	X2	Y2	Z2	X3	Y3	Z3	X4	Y4	Z4	X5	Y5	Z5	X6	Y6	Z6	X7	Y7	Z7	X8	Y8	Z8	X9	Y9	Z9	X10	Y10	Z10	X11	Y11	Z11	X12	Y12	Z12	X13	Y13	Z13	X14	Y14	Z14	X15	Y15	Z15	X16	Y16	Z16	X17	Y17	Z17	X18	Y18	Z18	

101	1	-2156.23193359375	1524.588989257813	353.8511352539063	-2056.943603515625	1450.7275390625	509.9711303710938	-2091.278564453125	1487.695434570313	172.3267364501953	nan	nan	nan	nan	nan	nan	nan	nan	nan	nan	nan	nan	nan	nan	nan	nan	nan	nan	nan	nan	nan	nan	nan	nan	nan	nan	nan	-1956.839599609375	643.4099731445313	64.71833801269531	-1916.413330078125	557.4534912109375	107.3368453979492	nan	nan	nan	nan	nan	nan	nan	nan	nan	nan	nan	nan	
102	1.01	-2152.82470703125	1524.3515625	354.9236145019531	-2053.22265625	1450.4814453125	510.7815246582031	-2088.693359375	1487.552124023438	173.2864074707031	nan	nan	nan	nan	nan	nan	nan	nan	nan	nan	nan	nan	nan	nan	nan	nan	nan	nan	nan	nan	nan	nan	nan	nan	nan	nan	nan	-1953.198852539063	645.2250366210938	64.86151885986328	-1912.0791015625	558.7311401367188	108.2397689819336	nan	nan	nan	nan	nan	nan	nan	nan	nan	nan	nan	nan	
103	1.02	-2149.3916015625	1524.167846679688	355.9447631835938	-2049.4814453125	1450.292236328125	511.5510864257813	-2085.958251953125	1487.375	174.2110595703125	nan	nan	nan	nan	nan	nan	nan	nan	nan	nan	nan	nan	nan	nan	nan	nan	nan	nan	nan	nan	nan	nan	nan	nan	nan	nan	nan	-1948.89599609375	646.1986694335938	65.56002807617188	-1906.253784179688	558.9188232421875	109.6749725341797	nan	nan	nan	nan	nan	nan	nan	nan	nan	nan	nan	nan	
104	1.03	-2145.88037109375	1523.960815429688	356.87255859375	-2045.564697265625	1450.048706054688	512.2307739257813	-2083.106201171875	1487.23095703125	175.0885620117188	-2193.445556640625	1056.644409179688	303.6073608398438	nan	nan	nan	nan	nan	nan	nan	nan	nan	nan	nan	nan	nan	nan	nan	nan	nan	nan	nan	nan	nan	nan	nan	nan	-1944.37744140625	646.892333984375	66.57598114013672	-1901.339233398438	559.4157104492188	111.0069274902344	nan	nan	nan	nan	nan	nan	nan	nan	nan	nan	nan	nan	
105	1.04	-2142.315673828125	1523.730590820313	357.7321166992188	-2041.632446289063	1449.83544921875	512.84326171875	-2080.14208984375	1487.124145507813	175.9123229980469	-2192.5654296875	1057.069458007813	304.0957641601563	nan	nan	nan	nan	nan	nan	nan	nan	nan	nan	nan	nan	nan	nan	nan	nan	nan	nan	nan	nan	nan	nan	nan	nan	-1938.393798828125	646.2724609375	68.11495208740234	-1897.2021484375	560.0838623046875	111.9899063110352	nan	nan	nan	nan	nan	nan	nan	nan	nan	nan	nan	nan	
106	1.05	-2138.58984375	1523.48828125	358.4682312011719	-2037.61962890625	1449.571899414063	513.3736572265625	-2077.107421875	1486.981079101563	176.71826171875	-2191.4775390625	1057.35107421875	304.5575561523438	nan	nan	nan	nan	nan	nan	nan	nan	nan	nan	nan	nan	nan	nan	nan	nan	nan	nan	nan	nan	nan	nan	nan	nan	-1932.84521484375	645.3035278320313	69.11452484130859	-1893.57568359375	560.657470703125	112.588493347168	nan	nan	nan	nan	nan	nan	nan	nan	nan	nan	nan	nan	
107	1.06	-2134.784423828125	1523.25537109375	359.1490478515625	-2033.531616210938	1449.2880859375	513.846923828125	-2074.01904296875	1486.826904296875	177.4806213378906	-2190.3125	1057.56298828125	305.0176391601563	nan	nan	nan	nan	nan	nan	nan	nan	nan	nan	nan	nan	nan	nan	nan	nan	nan	nan	nan	nan	nan	nan	nan	nan	-1932.070678710938	647.2767333984375	68.65340423583984	-1889.542236328125	561.0153198242188	113.4045333862305	nan	nan	nan	nan	nan	nan	nan	nan	nan	nan	nan	nan	
108	1.07	-2130.800048828125	1522.955932617188	359.7173767089844	-2029.292602539063	1448.9296875	514.2301025390625	-2070.8291015625	1486.680053710938	178.1288299560547	-2188.852783203125	1057.718627929688	305.4224243164063	nan	nan	nan	nan	nan	nan	nan	nan	nan	nan	nan	nan	nan	nan	nan	nan	nan	nan	nan	nan	nan	nan	nan	nan	-1929.105102539063	647.6290283203125	68.88806915283203	-1885.223388671875	561.3375244140625	114.6684341430664	nan	nan	nan	nan	nan	nan	nan	nan	nan	nan	nan	nan	
109	1.08	-2126.67431640625	1522.60498046875	360.1728515625	-2025.007690429688	1448.5654296875	514.5521240234375	-2067.522705078125	1486.503051757813	178.7103729248047	-2186.6064453125	1057.630981445313	305.7884521484375	nan	nan	nan	nan	nan	nan	nan	nan	nan	nan	nan	nan	nan	nan	nan	nan	nan	nan	nan	nan	nan	nan	nan	nan	-1926.78076171875	647.6172485351563	69.40149688720703	-1880.899658203125	561.398681640625	115.9696197509766	nan	nan	nan	nan	nan	nan	nan	nan	nan	nan	nan	nan	
110	1.09	-2122.46435546875	1522.242309570313	360.5455017089844	-2020.65185546875	1448.169799804688	514.7669067382813	-2064.078857421875	1486.241455078125	179.2310638427734	-2183.4755859375	1057.300537109375	306.1112670898438	nan	nan	nan	nan	nan	nan	nan	nan	nan	nan	nan	nan	nan	nan	nan	nan	nan	nan	nan	nan	nan	nan	nan	nan	nan	nan	nan	-1877.73779296875	561.6219482421875	116.7825164794922	nan	nan	nan	nan	nan	nan	nan	nan	nan	nan	nan	nan	
111	1.1	-2118.162841796875	1521.878662109375	360.8629760742188	-2016.225341796875	1447.694091796875	514.8897094726563	-2060.357666015625	1485.87158203125	179.5754241943359	-2180.015625	1056.899291992188	306.3857727050781	nan	nan	nan	nan	nan	nan	nan	nan	nan	nan	nan	nan	nan	nan	nan	nan	nan	nan	nan	nan	nan	nan	nan	nan	-1916.422729492188	645.7815551757813	71.85814666748047	-1873.742065429688	561.3873901367188	118.0497207641602	nan	nan	nan	nan	nan	nan	nan	nan	nan	nan	nan	nan	
112	1.11	-2113.81103515625	1521.45654296875	361.1034851074219	-2011.6884765625	1447.163940429688	514.9279174804688	-2056.359375	1485.404907226563	179.7389526367188	-2176.427978515625	1056.506469726563	306.6102294921875	nan	nan	nan	nan	nan	nan	nan	nan	nan	nan	nan	nan	nan	nan	nan	nan	nan	nan	nan	nan	nan	nan	nan	nan	-1914.760009765625	645.5673217773438	72.39785766601563	-1868.931762695313	560.546630859375	119.7281112670898	nan	nan	nan	nan	nan	nan	nan	nan	nan	nan	nan	nan	
113	1.12	-2109.36572265625	1520.955078125	361.2408752441406	-2007.091064453125	1446.594848632813	514.886474609375	-2052.270263671875	1484.88330078125	179.7753601074219	-2172.705810546875	1056.0947265625	306.7671508789063	nan	nan	nan	nan	nan	nan	nan	nan	nan	nan	nan	nan	nan	nan	nan	nan	nan	nan	nan	nan	nan	nan	nan	nan	-1912.554077148438	645.0408935546875	73.29970550537109	-1865.9384765625	560.5186157226563	120.5013732910156	nan	nan	nan	nan	nan	nan	nan	nan	nan	nan	nan	nan	
114	1.13	-2104.7998046875	1520.450073242188	361.2566528320313	-2002.387939453125	1445.967407226563	514.7937622070313	-2048.049072265625	1484.30126953125	179.7284851074219	-2168.8779296875	1055.711547851563	306.8925476074219	nan	nan	nan	nan	nan	nan	nan	nan	nan	nan	nan	nan	nan	nan	nan	nan	nan	nan	nan	nan	nan	nan	nan	nan	-1910.480102539063	644.42041015625	74.15149688720703	-1861.961181640625	560.0380859375	121.8160400390625	nan	nan	nan	nan	nan	nan	nan	nan	nan	nan	nan	nan	
115	1.14	-2100.13623046875	1519.89892578125	361.1862487792969	-1997.536865234375	1445.301025390625	514.6075439453125	-2043.712158203125	1483.623901367188	179.5944976806641	-2164.973876953125	1055.298217773438	306.9571838378906	nan	nan	nan	nan	nan	nan	nan	nan	nan	nan	nan	nan	nan	nan	nan	nan	nan	nan	nan	nan	nan	nan	nan	nan	nan	nan	nan	-1857.3857421875	559.07177734375	123.4065322875977	nan	nan	nan	nan	nan	nan	nan	nan	nan	nan	nan	nan	
116	1.15	-2095.462158203125	1519.350341796875	361.0432434082031	-1992.702026367188	1444.611572265625	514.3245239257813	-2039.322875976563	1482.916381835938	179.3902282714844	-2160.91259765625	1054.808227539063	306.9297485351563	nan	nan	nan	nan	nan	nan	nan	nan	nan	nan	nan	nan	nan	nan	nan	nan	nan	nan	nan	nan	nan	nan	nan	nan	nan	nan	nan	-1854.149169921875	558.5076293945313	124.5057144165039	nan	nan	nan	nan	nan	nan	nan	nan	nan	nan	nan	nan	
117	1.16	-2090.61669921875	1518.7412109375	360.7621154785156	-1987.745361328125	1443.91845703125	513.959716796875	-2034.878295898438	1482.180541992188	179.0908813476563	-2156.715087890625	1054.251708984375	306.8208312988281	nan	nan	nan	nan	nan	nan	nan	nan	nan	nan	nan	nan	nan	nan	nan	nan	nan	nan	nan	nan	nan	nan	nan	nan	-1898.832153320313	639.9494018554688	77.26070404052734	-1851.40283203125	558.0371704101563	125.1767730712891	nan	nan	nan	nan	nan	nan	nan	nan	nan	nan	nan	nan	
118	1.17	-2085.6884765625	1518.070922851563	360.3952026367188	-1982.708251953125	1443.204223632813	513.5050659179688	-2030.265380859375	1481.350830078125	178.6771545410156	-2152.44775390625	1053.649047851563	306.6269226074219	nan	nan	nan	nan	nan	nan	nan	nan	nan	nan	nan	nan	nan	nan	nan	nan	nan	nan	nan	nan	nan	nan	nan	nan	-1897.639404296875	639.4993896484375	77.46029663085938	-1847.801635742188	557.2654418945313	125.9777374267578	-1895.427490234375	280.3623046875	72.58855438232422	nan	nan	nan	nan	nan	nan	nan	nan	nan	
119	1.18	-2080.6318359375	1517.378540039063	359.9213562011719	-1977.629638671875	1442.501831054688	512.9610595703125	-2025.526000976563	1480.519897460938	178.1809539794922	-2148.0185546875	1052.973022460938	306.3145446777344	nan	nan	nan	nan	nan	nan	nan	nan	nan	nan	nan	nan	nan	nan	nan	nan	nan	nan	nan	nan	nan	nan	nan	nan	nan	nan	nan	-1844.453125	556.6529541015625	126.859245300293	-1886.593383789063	278.3116149902344	73.24546051025391	nan	nan	nan	nan	nan	nan	nan	nan	nan	
120	1.19	-2075.51708984375	1516.707397460938	359.3921508789063	-1972.421142578125	1441.813598632813	512.32275390625	-2020.648681640625	1479.63818359375	177.5934448242188	-2143.543212890625	1052.3388671875	305.9705505371094	nan	nan	nan	nan	nan	nan	nan	nan	nan	nan	nan	nan	nan	nan	nan	nan	nan	nan	nan	nan	nan	nan	nan	nan	nan	nan	nan	-1840.159057617188	555.6319580078125	128.2455596923828	-1877.50146484375	276.88916015625	73.78900146484375	nan	nan	nan	nan	nan	nan	nan	nan	nan	
121	1.2	-2070.3349609375	1516.052490234375	358.7707824707031	-1967.149047851563	1441.138305664063	511.6180114746094	-2015.700317382813	1478.71826171875	176.9281616210938	-2138.94482421875	1051.657836914063	305.5446472167969	nan	nan	nan	nan	nan	nan	nan	nan	nan	nan	nan	nan	nan	nan	nan	nan	nan	nan	nan	nan	nan	nan	nan	nan	nan	nan	nan	-1835.0517578125	554.0115356445313	129.5572814941406	-1868.855712890625	275.3040771484375	74.01093292236328	nan	nan	nan	nan	nan	nan	nan	nan	nan	
122	1.21	-2065.047607421875	1515.371704101563	358.0182495117188	-1961.792236328125	1440.503295898438	510.8265380859375	-2010.68896484375	1477.812255859375	176.167236328125	-2134.15283203125	1050.986328125	305.0223083496094	nan	nan	nan	nan	nan	nan	nan	nan	nan	nan	nan	nan	nan	nan	nan	nan	nan	nan	nan	nan	nan	nan	nan	nan	nan	nan	nan	-1831.505126953125	553.21875	129.9569702148438	-1859.025512695313	274.1612854003906	74.42228698730469	nan	nan	nan	nan	nan	nan	nan	nan	nan	
123	1.22	-2059.62939453125	1514.65869140625	357.1416931152344	-1956.27783203125	1439.88525390625	509.9294738769531	-2005.544677734375	1476.885986328125	175.3193817138672	-2129.15283203125	1050.321655273438	304.3970947265625	nan	nan	nan	nan	nan	nan	nan	nan	nan	nan	nan	nan	nan	nan	nan	nan	nan	nan	nan	nan	nan	nan	nan	nan	-1874.388305664063	631.8521118164063	80.62560272216797	-1828.885986328125	552.71142578125	130.3968353271484	-1850.130737304688	272.9267272949219	74.88348388671875	nan	nan	nan	nan	nan	nan	nan	nan	nan	
